<svg width="64" height="64" viewBox="0 0 64 64" fill="none" xmlns="http://www.w3.org/2000/svg">
<path d="M55.5226 48.5128C54.8906 44.7697 52.2299 41.6984 48.5793 40.4981L40.4756 37.8336V36.6454H38.5919V38.3882L37.1857 43.9355L33.3815 39.4325H30.6153L26.8112 43.9355L25.4059 38.3882V36.6454H23.5222V37.8336L15.4186 40.4981C11.7689 41.6984 9.10814 44.7697 8.47522 48.5128L6.39844 60.8002H57.5984L55.5226 48.5128ZM27.4149 58.9421H17.0282L17.8664 50.6737L15.9921 50.4889L15.1351 58.9431H8.62309L10.3335 48.8194C10.8506 45.7564 13.0281 43.2443 16.0147 42.2614L23.7973 39.7019L25.8844 47.9359L28.0083 45.4219L29.1319 47.0849L27.4149 58.9421ZM34.6804 58.9421H29.3175L31.0985 46.6445L29.2657 43.9327L31.4978 41.2905H32.499L34.7312 43.9327L32.8984 46.6445L34.6804 58.9421ZM48.8628 58.9421L48.0057 50.4879L46.1314 50.6728L46.9696 58.9412H36.5829L34.8659 47.084L35.9895 45.421L38.1134 47.935L40.2006 39.7009L47.9831 42.2604C50.9697 43.2424 53.1463 45.7554 53.6643 48.8185L55.3747 58.9421H48.8628Z" fill="#0018A8"/>
<path d="M20.1711 28.232C20.6515 29.8625 21.5387 31.3573 22.7895 32.5911L26.4627 36.2143C27.3518 37.0913 28.5338 37.5744 29.7921 37.5744H34.2066C35.464 37.5744 36.6469 37.0913 37.5361 36.2143L41.2093 32.5911C42.4601 31.3573 43.3473 29.8616 43.8276 28.232C46.1738 27.9701 48.0104 26.0228 48.0104 23.6389C48.0104 22.1144 47.2513 20.7701 46.0975 19.9228H46.1267V14.3486C46.1267 12.0232 44.3843 10.0908 42.12 9.75545C40.7026 5.86466 36.9097 3.2002 32.677 3.2002H31.9989C24.2089 3.2002 17.8711 9.45165 17.8711 17.1357V19.9228H17.9003C16.7466 20.7701 15.9874 22.1144 15.9874 23.6389C15.9874 26.0228 17.824 27.9701 20.1711 28.232ZM42.3593 25.3641C42.3593 27.5984 41.4777 29.6981 39.8766 31.2774L36.2033 34.9006C35.6778 35.419 34.9497 35.7163 34.2057 35.7163H29.7912C29.0471 35.7163 28.32 35.419 27.7935 34.9006L24.1203 31.2774C22.5192 29.6981 21.6376 27.5984 21.6376 25.365V20.8518H25.3381C29.4832 20.8518 33.4023 19.3997 36.4991 16.7399L36.7873 17.2137C37.9891 19.1898 40.0687 20.5034 42.3593 20.7896V25.3641ZM46.1267 23.6389C46.1267 24.8643 45.3148 25.8965 44.1987 26.2681C44.2251 25.9698 44.243 25.6688 44.243 25.365V21.0227C45.3365 21.4074 46.1267 22.4293 46.1267 23.6389ZM19.7548 17.1357C19.7548 10.4764 25.2477 5.05826 31.9989 5.05826H32.677C36.2956 5.05826 39.5177 7.45516 40.5123 10.8879L40.7073 11.5615H41.4174C42.9752 11.5615 44.243 12.812 44.243 14.3486V19.0876C43.9388 19.0263 43.6232 18.9937 43.3011 18.9937C41.3063 18.9937 39.4292 17.9458 38.4026 16.2577L36.8947 13.7791L36.0413 14.6208C33.1828 17.4404 29.3824 18.9937 25.3391 18.9937H20.6967C20.3746 18.9937 20.0591 19.0263 19.7548 19.0876V17.1357ZM19.7548 21.0227V25.365C19.7548 25.6688 19.7727 25.9698 19.7991 26.269C18.683 25.8965 17.8711 24.8643 17.8711 23.6389C17.8711 22.4293 18.6613 21.4074 19.7548 21.0227Z" fill="#0018A8"/>
<path d="M55.5226 48.5128C54.8906 44.7697 52.2299 41.6984 48.5793 40.4981L40.4756 37.8336V36.6454H38.5919V38.3882L37.1857 43.9355L33.3815 39.4325H30.6153L26.8112 43.9355L25.4059 38.3882V36.6454H23.5222V37.8336L15.4186 40.4981C11.7689 41.6984 9.10814 44.7697 8.47522 48.5128L6.39844 60.8002H57.5984L55.5226 48.5128ZM27.4149 58.9421H17.0282L17.8664 50.6737L15.9921 50.4889L15.1351 58.9431H8.62309L10.3335 48.8194C10.8506 45.7564 13.0281 43.2443 16.0147 42.2614L23.7973 39.7019L25.8844 47.9359L28.0083 45.4219L29.1319 47.0849L27.4149 58.9421ZM34.6804 58.9421H29.3175L31.0985 46.6445L29.2657 43.9327L31.4978 41.2905H32.499L34.7312 43.9327L32.8984 46.6445L34.6804 58.9421ZM48.8628 58.9421L48.0057 50.4879L46.1314 50.6728L46.9696 58.9412H36.5829L34.8659 47.084L35.9895 45.421L38.1134 47.935L40.2006 39.7009L47.9831 42.2604C50.9697 43.2424 53.1463 45.7554 53.6643 48.8185L55.3747 58.9421H48.8628Z" stroke="#0018A8"/>
<path d="M20.1711 28.232C20.6515 29.8625 21.5387 31.3573 22.7895 32.5911L26.4627 36.2143C27.3518 37.0913 28.5338 37.5744 29.7921 37.5744H34.2066C35.464 37.5744 36.6469 37.0913 37.5361 36.2143L41.2093 32.5911C42.4601 31.3573 43.3473 29.8616 43.8276 28.232C46.1738 27.9701 48.0104 26.0228 48.0104 23.6389C48.0104 22.1144 47.2513 20.7701 46.0975 19.9228H46.1267V14.3486C46.1267 12.0232 44.3843 10.0908 42.12 9.75545C40.7026 5.86466 36.9097 3.2002 32.677 3.2002H31.9989C24.2089 3.2002 17.8711 9.45165 17.8711 17.1357V19.9228H17.9003C16.7466 20.7701 15.9874 22.1144 15.9874 23.6389C15.9874 26.0228 17.824 27.9701 20.1711 28.232ZM42.3593 25.3641C42.3593 27.5984 41.4777 29.6981 39.8766 31.2774L36.2033 34.9006C35.6778 35.419 34.9497 35.7163 34.2057 35.7163H29.7912C29.0471 35.7163 28.32 35.419 27.7935 34.9006L24.1203 31.2774C22.5192 29.6981 21.6376 27.5984 21.6376 25.365V20.8518H25.3381C29.4832 20.8518 33.4023 19.3997 36.4991 16.7399L36.7873 17.2137C37.9891 19.1898 40.0687 20.5034 42.3593 20.7896V25.3641ZM46.1267 23.6389C46.1267 24.8643 45.3148 25.8965 44.1987 26.2681C44.2251 25.9698 44.243 25.6688 44.243 25.365V21.0227C45.3365 21.4074 46.1267 22.4293 46.1267 23.6389ZM19.7548 17.1357C19.7548 10.4764 25.2477 5.05826 31.9989 5.05826H32.677C36.2956 5.05826 39.5177 7.45516 40.5123 10.8879L40.7073 11.5615H41.4174C42.9752 11.5615 44.243 12.812 44.243 14.3486V19.0876C43.9388 19.0263 43.6232 18.9937 43.3011 18.9937C41.3063 18.9937 39.4292 17.9458 38.4026 16.2577L36.8947 13.7791L36.0413 14.6208C33.1828 17.4404 29.3824 18.9937 25.3391 18.9937H20.6967C20.3746 18.9937 20.0591 19.0263 19.7548 19.0876V17.1357ZM19.7548 21.0227V25.365C19.7548 25.6688 19.7727 25.9698 19.7991 26.269C18.683 25.8965 17.8711 24.8643 17.8711 23.6389C17.8711 22.4293 18.6613 21.4074 19.7548 21.0227Z" stroke="#0018A8"/>
</svg>
