<svg width="28" height="28" viewBox="0 0 28 28" fill="none" xmlns="http://www.w3.org/2000/svg">
<path d="M11.6008 12.6C14.2528 12.6 16.4008 10.452 16.4008 7.8C16.4008 5.148 14.2528 3 11.6008 3C8.94878 3 6.80078 5.148 6.80078 7.8C6.80078 10.452 8.94878 12.6 11.6008 12.6ZM11.6008 5.4C12.9208 5.4 14.0008 6.48 14.0008 7.8C14.0008 9.12 12.9208 10.2 11.6008 10.2C10.2808 10.2 9.20078 9.12 9.20078 7.8C9.20078 6.48 10.2808 5.4 11.6008 5.4Z" fill="#2338B5"/>
<path d="M4.4 19.8C4.664 18.936 8.372 17.4 11.6 17.4C11.6 16.56 11.756 15.756 12.02 15.012C8.744 14.892 2 16.524 2 19.8V22.2H13.448C12.824 21.504 12.332 20.7 12.02 19.8H4.4Z" fill="#2338B5"/>
<path d="M22.916 19.8236C23.348 19.1156 23.6 18.2876 23.6 17.3996C23.6 14.7476 21.452 12.5996 18.8 12.5996C16.148 12.5996 14 14.7476 14 17.3996C14 20.0516 16.148 22.1996 18.8 22.1996C19.688 22.1996 20.516 21.9356 21.224 21.5156C22.34 22.6316 23.168 23.4596 24.308 24.5996L26 22.9076C24.2 21.1076 25.052 21.9476 22.916 19.8236ZM18.8 19.7996C17.48 19.7996 16.4 18.7196 16.4 17.3996C16.4 16.0796 17.48 14.9996 18.8 14.9996C20.12 14.9996 21.2 16.0796 21.2 17.3996C21.2 18.7196 20.12 19.7996 18.8 19.7996Z" fill="#2338B5"/>
</svg>
