<svg width="28" height="28" viewBox="0 0 28 28" fill="none" xmlns="http://www.w3.org/2000/svg">
<path d="M16.3359 8.16667V5.83333H11.6693V8.16667H16.3359ZM4.66927 10.5V23.3333H23.3359V10.5H4.66927ZM23.3359 8.16667C24.6309 8.16667 25.6693 9.205 25.6693 10.5V23.3333C25.6693 24.6283 24.6309 25.6667 23.3359 25.6667H4.66927C3.37427 25.6667 2.33594 24.6283 2.33594 23.3333L2.3476 10.5C2.3476 9.205 3.37427 8.16667 4.66927 8.16667H9.33594V5.83333C9.33594 4.53833 10.3743 3.5 11.6693 3.5H16.3359C17.6309 3.5 18.6693 4.53833 18.6693 5.83333V8.16667H23.3359Z" fill="#2338B5"/>
</svg>
